<svg width="138" height="30" viewBox="0 0 138 30" fill="none" xmlns="http://www.w3.org/2000/svg">
<path d="M28.4301 29.0571L14.7722 11.6848H29.6301V6.37027H10.2577V22.1997C10.2577 24.9046 9.43863 26.7332 7.80045 27.6856C6.96231 28.1809 6.00988 28.5047 4.94316 28.6571C3.87644 28.8095 2.79067 28.8857 1.68585 28.8857H0.714373V0.369962H30.4302C33.097 0.369962 35.2114 0.884274 36.7734 1.9129C38.3353 2.94152 39.1163 4.42731 39.1163 6.37027V11.7991C39.1163 13.6278 38.3925 15.0564 36.9448 16.0851C35.5352 17.1137 33.5161 17.6851 30.8873 17.7994L40.0307 29.0571H28.4301ZM51.9768 29C50.8339 29 49.7481 28.8667 48.7195 28.6C47.6909 28.2952 46.7766 27.8952 45.9765 27.3999C45.2146 26.8666 44.605 26.238 44.1478 25.5141C43.6907 24.7903 43.4621 23.9712 43.4621 23.0568V0.369962H53.0054V29H51.9768ZM94.8112 23.2283C94.8112 24.2569 94.5826 25.1331 94.1254 25.857C93.6682 26.5427 93.0396 27.1332 92.2396 27.6285C91.4776 28.0857 90.5633 28.4285 89.4966 28.6571C88.4299 28.8857 87.287 29 86.0678 29H64.9239C63.7429 29 62.6381 28.8667 61.6095 28.6C60.5808 28.2952 59.6665 27.8952 58.8665 27.3999C58.1045 26.8666 57.495 26.257 57.0378 25.5713C56.6187 24.8474 56.4092 24.0283 56.4092 23.114V6.19883C56.4092 5.36069 56.6187 4.5797 57.0378 3.85586C57.495 3.09391 58.1045 2.46531 58.8665 1.97005C59.6665 1.43669 60.5808 1.03666 61.6095 0.769984C62.6381 0.503303 63.7429 0.369962 64.9239 0.369962H86.0678C88.6585 0.369962 90.7538 0.884274 92.3539 1.9129C93.9921 2.90343 94.8112 4.37017 94.8112 6.31313V23.2283ZM85.2678 6.37027H65.9525V23.114H85.2678V6.37027ZM137.066 1.62717C137.066 2.84628 136.78 3.77966 136.209 4.42731C135.637 5.07497 134.933 5.53213 134.094 5.79881C133.294 6.06549 132.456 6.23693 131.58 6.31313C130.704 6.35122 129.942 6.37027 129.294 6.37027H122.608V23.0568C122.608 25.1903 122.113 26.7142 121.122 27.6285C120.17 28.5428 118.379 29 115.751 29H112.95V6.37027H98.264V5.57023C98.264 3.55108 98.8355 2.17958 99.9784 1.45573C101.159 0.731886 102.817 0.369962 104.95 0.369962H137.066V1.62717Z" fill="white"/>
</svg>
