<?xml version="1.0" encoding="UTF-8"?>
<svg id="Layer_1" data-name="Layer 1" xmlns="http://www.w3.org/2000/svg" viewBox="0 0 325.19 309.92">
  <defs>
    <style>
      .cls-1 {
        fill: #000000;
      }

      .cls-1, .cls-2 {
        stroke-width: 0px;
      }

      .cls-2 {
        fill: #0298f9;
      }
    </style>
  </defs>
  <path class="cls-2" d="m209.04,309.8c-4.09.1-7.37-3.22-11.14-5.05-10.23-4.97-20.58-9.72-30.61-15.04-6.35-3.37-10.53.6-15.16,2.73-11.19,5.15-22.06,10.99-33.18,16.29-5.3,2.53-9.17.99-11.98-4.36-6.3-11.97-12.46-24.02-18.7-36.02-2.44-4.69-6.13-7.05-11.6-7.85-13.7-2-27.32-4.53-40.92-7.16-4.98-.96-7.03-5.12-6.22-10.25,2.27-14.48,4.39-28.99,6.64-43.48.69-4.44-2.33-7.11-4.79-9.72-8.85-9.36-18.05-18.38-27-27.64-4.35-4.49-6.94-7.91-.57-14.13,9.94-9.71,18.96-20.35,29.01-29.93,5.57-5.3,3.3-11.18,2.11-16.25-2.87-12.27-2.55-24.93-5.44-37.15-.93-3.94,3.37-7.96,8.08-9.03,12.05-2.74,24.61-2.79,36.4-6.87,1.05-.37,2.33-.34,3.46-.18,5.6.8,8.65-2.48,10.94-6.83,6.36-12.11,12.66-24.26,18.96-36.41,2.85-5.5,6.6-6.61,12-3.95,13.04,6.43,26.16,12.68,39.25,19.01,3.05,1.48,5.98,1.36,9.06-.18,11.79-5.9,23.51-11.95,35.5-17.43,10.11-4.62,10.52-4.46,16.17,5.51,6.25,11.03,11.98,22.36,17.87,33.59,2.22,4.23,5.04,6.37,10.34,6.91,10.46,1.07,20.77,3.58,31.14,5.47,2.76.5,5.53.98,8.31,1.33,7.02.88,10.75,6.58,8.38,13.19-1.76,4.91-1.45,10.09-2.37,15.12-1.54,8.43-2.56,16.97-3.6,25.48-.41,3.32.26,6.02,3.07,8.84,10.12,10.14,19.75,20.77,30,30.8,2.64,2.58,4.21,6.32.65,10.02-9.38,9.74-18.51,19.73-28.04,29.32-4.28,4.3-6.17,8.47-5.35,14.91,1.53,11.94,4.54,23.72,4.63,35.83.02,2.82,2.92,5.27,1.41,8.07-1.84,3.44-4.15,5.66-8.77,6.73-8.87,2.06-17.98,2.52-26.78,4.82-4.12,1.08-8.44,1.45-12.7,1.87-5.3.52-8.5,3.17-10.86,8.02-4.32,8.89-9.33,17.44-13.99,26.17-1.7,3.18-3.08,6.53-4.88,9.65-1.77,3.08-4.17,5.5-8.75,5.22Z"/>
  <path class="cls-1" d="m144.43,212.47c-.98-.92-1.71-1.56-2.4-2.26-13.76-14.01-27.48-28.07-41.31-42.02-1.85-1.87-1.89-2.96.09-4.74,4.82-4.34,9.53-8.82,14.08-13.45,1.98-2.01,3.25-1.83,5.3-.06,8.18,7.07,16.68,13.79,24.74,20.99,2.89,2.58,4.27,2.07,6.7-.47,17.38-18.16,34.97-36.11,52.35-54.27,2.54-2.65,4.13-3.41,7-.4,3.89,4.08,8.14,7.88,12.57,11.39,3.27,2.59,3.32,4.2.26,7.18-21.08,20.58-41.96,41.37-62.9,62.09-4.61,4.57-9.23,9.13-13.86,13.68-.8.78-1.67,1.5-2.6,2.32Z"/>
</svg>