<svg width="20" height="20" viewBox="0 0 20 20" fill="none" xmlns="http://www.w3.org/2000/svg">
<path d="M12 5H8C7.73478 5 7.48043 5.10536 7.29289 5.29289C7.10536 5.48043 7 5.73478 7 6V19C7 19.2652 7.10536 19.5196 7.29289 19.7071C7.48043 19.8946 7.73478 20 8 20H12C12.2652 20 12.5196 19.8946 12.7071 19.7071C12.8946 19.5196 13 19.2652 13 19V6C13 5.73478 12.8946 5.48043 12.7071 5.29289C12.5196 5.10536 12.2652 5 12 5ZM11 18H9V7H11V18Z" fill="#C1C1C1"/>
<path d="M19 0H15C14.7348 0 14.4804 0.105357 14.2929 0.292893C14.1054 0.48043 14 0.734784 14 1V19C14 19.2652 14.1054 19.5196 14.2929 19.7071C14.4804 19.8946 14.7348 20 15 20H19C19.2652 20 19.5196 19.8946 19.7071 19.7071C19.8946 19.5196 20 19.2652 20 19V1C20 0.734784 19.8946 0.48043 19.7071 0.292893C19.5196 0.105357 19.2652 0 19 0ZM18 18H16V2H18V18Z" fill="#C1C1C1"/>
<path d="M5 10H1C0.734784 10 0.48043 10.1054 0.292893 10.2929C0.105357 10.4804 0 10.7348 0 11V19C0 19.2652 0.105357 19.5196 0.292893 19.7071C0.48043 19.8946 0.734784 20 1 20H5C5.26522 20 5.51957 19.8946 5.70711 19.7071C5.89464 19.5196 6 19.2652 6 19V11C6 10.7348 5.89464 10.4804 5.70711 10.2929C5.51957 10.1054 5.26522 10 5 10ZM4 18H2V12H4V18Z" fill="#C1C1C1"/>
</svg>
