<svg width="22" height="32" viewBox="0 0 22 30" fill="none" xmlns="http://www.w3.org/2000/svg">
<g opacity="0.8">
<path d="M10.9999 13.4993C12.6841 13.4993 14.0494 12.1561 14.0494 10.4993C14.0494 8.84242 12.6841 7.49927 10.9999 7.49927C9.31562 7.49927 7.95029 8.84242 7.95029 10.4993C7.95029 12.1561 9.31562 13.4993 10.9999 13.4993Z" fill="white"/>
<path d="M20.7947 5.995C19.9932 4.34965 18.7716 2.93689 17.2493 1.89463C15.727 0.852383 13.956 0.216263 12.1091 0.0483754C11.3713 -0.0161251 10.629 -0.0161251 9.89118 0.0483754C8.04426 0.216177 6.27312 0.852257 4.7507 1.89451C3.22828 2.93677 2.00661 4.34958 1.20496 5.995C0.321971 7.73292 -0.0877898 9.6664 0.0156886 11.6066C0.119167 13.5469 0.732347 15.4276 1.79536 17.065L9.71339 29.3051C9.8511 29.5181 10.0412 29.6934 10.2661 29.8148C10.491 29.9363 10.7434 30 10.9999 30C11.2565 30 11.5089 29.9363 11.7338 29.8148C11.9587 29.6934 12.1488 29.5181 12.2865 29.3051L20.2044 17.065C21.2675 15.4276 21.8808 13.5469 21.9843 11.6067C22.0878 9.66638 21.6779 7.73287 20.7947 5.995ZM17.6313 15.4542L10.9999 25.706L4.36842 15.4549C3.58825 14.2508 3.13881 12.8682 3.06398 11.4421C2.98915 10.016 3.29149 8.59525 3.94149 7.31846C4.50631 6.13045 5.37878 5.10946 6.47138 4.35793C7.56398 3.60639 8.83827 3.15074 10.1664 3.03669C10.4409 3.01179 10.7187 2.99934 10.9999 2.99934C11.2813 2.99934 11.559 3.01179 11.8345 3.03669C13.1625 3.15087 14.4367 3.60658 15.5291 4.35811C16.6216 5.10963 17.4939 6.13055 18.0587 7.31846C18.7086 8.59515 19.0109 10.0158 18.936 11.4418C18.8611 12.8677 18.4115 14.2502 17.6313 15.4542Z" fill="white"/>
</g>
</svg>
